<svg id="exei3wm15ny1" xmlns="http://www.w3.org/2000/svg" xmlns:xlink="http://www.w3.org/1999/xlink" viewBox="0 0 297.500000 297.500000" shape-rendering="geometricPrecision" text-rendering="geometricPrecision"><style><![CDATA[#exei3wm15ny2_tr {animation: exei3wm15ny2_tr__tr 5000ms linear infinite normal forwards}@keyframes exei3wm15ny2_tr__tr { 0% {transform: translate(148.974093px,148.615002px) rotate(0deg)} 100% {transform: translate(148.974093px,148.615002px) rotate(360deg)} }]]></style><g id="exei3wm15ny2_tr" transform="translate(148.974093,148.615002) rotate(0)"><g id="exei3wm15ny2" transform="translate(-148.974093,-52.855000)"><path id="exei3wm15ny3" d="M129.100000,40.920000C116.710000,45.030000,112.850000,54.030000,110.840000,62.290000C108.990000,63.280000,107.030000,64.030000,105.030000,64.280000C103.820000,64.410000,102.420000,64.310000,101.090000,64.350000C99.740000,64.350000,98.400000,64.400000,97.050000,64.440000C95.880000,64.490000,94.720000,64.550000,93.550000,64.630000C95.210000,56.920000,99.240000,40.970000,101.850000,24.910000C104.510000,8.500000,112.260000,0,112.260000,0C102.340000,4.750000,97.340000,9.920000,92.840000,21.750000C88.340000,33.580000,83.010000,65.330000,81.760000,72.830000C80.510000,80.330000,84.340000,81.410000,91.690000,83.820000C99.040000,86.230000,108.350000,80.420000,108.350000,80.420000L108.350000,83.090000C117.030000,86.040000,124.930000,79.170000,124.930000,79.170000L119.010000,79.170000C119.010000,79.170000,119.180000,78.090000,120.180000,62.840000C121.180000,47.590000,129.100000,40.920000,129.100000,40.920000ZM93.930000,81.170000C90.320000,81.170000,91.800000,72.940000,93.360000,65.520000C94.590000,65.610000,95.820000,65.670000,97.050000,65.720000C98.400000,65.760000,99.740000,65.810000,101.090000,65.810000C102.450000,65.810000,103.740000,65.880000,105.210000,65.710000C107.110000,65.440000,108.860000,64.750000,110.470000,63.860000C110.010000,65.920000,109.650000,67.920000,109.260000,69.740000C107.260000,79.250000,97.600000,81.170000,93.930000,81.170000Z" fill="rgb(41,35,92)" stroke="none" stroke-width="1"/><path id="exei3wm15ny4" d="M169.530000,65.050000C181.920000,60.940000,185.780000,51.940000,187.790000,43.680000C189.640000,42.690000,191.600000,41.940000,193.600000,41.690000C194.810000,41.560000,196.210000,41.660000,197.540000,41.620000C198.890000,41.620000,200.230000,41.570000,201.580000,41.530000C202.750000,41.480000,203.910000,41.420000,205.080000,41.340000C203.420000,49.050000,199.390000,65,196.780000,81.060000C194.110000,97.480000,186.360000,105.980000,186.360000,105.980000C196.280000,101.230000,201.280000,96.060000,205.780000,84.230000C210.280000,72.400000,215.610000,40.650000,216.860000,33.150000C218.110000,25.650000,214.280000,24.570000,206.930000,22.160000C199.580000,19.750000,190.270000,25.560000,190.270000,25.560000L190.270000,22.890000C181.590000,19.940000,173.690000,26.810000,173.690000,26.810000L179.610000,26.810000C179.610000,26.810000,179.440000,27.890000,178.440000,43.140000C177.440000,58.390000,169.530000,65.050000,169.530000,65.050000ZM204.700000,24.800000C208.310000,24.800000,206.830000,33.030000,205.270000,40.450000C204.040000,40.360000,202.810000,40.300000,201.580000,40.250000C200.230000,40.210000,198.890000,40.160000,197.540000,40.160000C196.180000,40.160000,194.890000,40.090000,193.420000,40.260000C191.520000,40.530000,189.770000,41.220000,188.160000,42.110000C188.620000,40.050000,188.980000,38.050000,189.370000,36.230000C191.360000,26.720000,201.030000,24.800000,204.700000,24.800000Z" fill="rgb(41,35,92)" stroke="none" stroke-width="1"/><path id="exei3wm15ny5" d="M170.110000,28.770000C169.690000,27.330000,169.100000,25.950000,168.370000,24.660000C167.640000,23.410000,166.790000,22.160000,165.710000,21.060000C164.630000,19.960000,163.320000,19,161.860000,18.380000C160.400000,17.760000,158.840000,17.480000,157.350000,17.450000C154.340000,17.390000,151.600000,18.240000,149.050000,19.250000C146.510000,20.330000,144.130000,21.640000,141.900000,23.200000C144.500000,22.440000,147.060000,21.640000,149.630000,21.120000C152.180000,20.570000,154.780000,20.270000,157.130000,20.580000C159.500000,20.870000,161.470000,21.910000,162.950000,23.640000C163.700000,24.500000,164.350000,25.490000,164.930000,26.580000C165.490000,27.640000,165.960000,28.730000,166.270000,29.870000C167.610000,34.420000,166.700000,39.490000,164.410000,43.970000C163.330000,46.180000,161.770000,48.050000,159.610000,49.360000C157.950000,50.410000,156,51.100000,153.950000,51.460000C155.610000,43.160000,157.150000,35.670000,157.640000,33.750000C158.890000,28.920000,161.310000,22.830000,154.140000,22.830000C146.970000,22.830000,145.970000,27,145.970000,27C151.720000,24.250000,146.390000,42.670000,144.390000,50.250000C144.150000,51.160000,143.790000,52.330000,143.370000,53.670000C141.410000,53.570000,139.400000,53.880000,137.490000,54.610000C136.150000,55.130000,134.880000,55.900000,133.750000,56.850000C132.600000,57.770000,131.650000,58.990000,130.860000,60.170000C129.300000,62.540000,128.110000,65.230000,127.530000,68.110000C126.940000,70.990000,127.010000,74.060000,127.840000,76.940000C128.260000,78.380000,128.850000,79.760000,129.580000,81.050000C130.310000,82.300000,131.160000,83.550000,132.240000,84.650000C133.320000,85.750000,134.630000,86.710000,136.090000,87.330000C137.550000,87.950000,139.110000,88.230000,140.600000,88.260000C143.610000,88.320000,146.350000,87.470000,148.900000,86.460000C151.440000,85.380000,153.820000,84.070000,156.050000,82.510000C153.450000,83.270000,150.890000,84.070000,148.320000,84.590000C145.770000,85.140000,143.170000,85.440000,140.820000,85.130000C138.450000,84.840000,136.480000,83.800000,135,82.070000C134.250000,81.210000,133.600000,80.220000,133.020000,79.130000C132.460000,78.070000,131.990000,76.980000,131.680000,75.840000C130.340000,71.290000,131.250000,66.220000,133.540000,61.740000C134.620000,59.530000,136.180000,57.660000,138.340000,56.350000C139.770000,55.450000,141.400000,54.830000,143.130000,54.440000C139.970000,64.500000,133.890000,83.090000,142.550000,83.090000C153.220000,83.090000,156.050000,77.020000,156.050000,77.020000C151.970000,78.850000,148.630000,78.350000,148.630000,78.350000C148.630000,78.350000,151.360000,64.370000,153.830000,51.990000C156.010000,52.230000,158.300000,51.930000,160.450000,51.120000C161.790000,50.600000,163.060000,49.830000,164.190000,48.880000C165.340000,47.960000,166.290000,46.740000,167.080000,45.560000C168.640000,43.190000,169.830000,40.500000,170.410000,37.620000C171.010000,34.730000,170.940000,31.650000,170.110000,28.770000Z" fill="rgb(41,35,92)" stroke="none" stroke-width="1"/><path id="exei3wm15ny6" d="M75.710000,87.720000C74.210000,87.510000,72.760000,87.220000,71.550000,86.690000C70.330000,86.190000,69.450000,85.460000,69.070000,84.690000C68.680000,83.940000,68.570000,83.060000,68.670000,81.930000L68.700000,81.510000L68.770000,80.980000L68.920000,79.920000C69,79.230000,69.140000,78.450000,69.250000,77.720000L69.990000,73.210000C70.500000,70.180000,70.980000,67.120000,71.440000,64.060000C72.100000,59.600000,72.660000,55.100000,73.100000,50.580000C75.380000,36.910000,78.230000,21.990000,78.270000,21.770000C76.550000,21.920000,74.840000,22.110000,73.130000,22.320000L70.930000,22.560000C70.930000,22.570000,70.920000,22.600000,70.920000,22.620000C69.220000,22.860000,67.520000,23.130000,65.830000,23.460000C63.760000,23.830000,61.720000,24.320000,59.670000,24.870000C57.630000,25.430000,55.600000,26.060000,53.630000,26.900000C51.650000,27.730000,49.700000,28.700000,47.910000,30.020000C46.120000,31.310000,44.500000,33.100000,43.440000,35.070000C42.370000,37.030000,41.580000,39.110000,41.120000,41.290000C40.680000,43.470000,40.520000,45.780000,41.030000,48.110000C41.510000,50.420000,42.880000,52.770000,44.970000,54.110000C45.990000,54.800000,47.100000,55.280000,48.210000,55.620000C48.220000,55.620000,48.230000,55.620000,48.250000,55.630000L47.800000,56.050000C43.960000,59.610000,40.150000,63.250000,36.240000,66.670000C34.270000,68.370000,32.260000,70.020000,30.160000,71.540000C28.070000,73.080000,25.910000,74.510000,23.670000,75.800000C21.440000,77.100000,19.140000,78.280000,16.760000,79.210000C15.570000,79.650000,14.360000,80.080000,13.150000,80.320000C12.550000,80.450000,11.950000,80.520000,11.390000,80.550000L9.430000,80.570000C8.160000,80.570000,6.920000,80.490000,5.790000,80.170000C4.660000,79.860000,3.700000,79.240000,3.030000,78.350000C2.350000,77.460000,1.950000,76.320000,1.790000,75.110000C1.650000,74.520000,1.670000,73.880000,1.620000,73.260000C1.610000,72.640000,1.640000,72.010000,1.680000,71.390000C1.930000,68.910000,2.750000,66.470000,4.190000,64.410000C4.890000,63.360000,5.770000,62.460000,6.710000,61.620000C7.700000,60.840000,8.750000,60.120000,9.910000,59.590000C11.060000,59.070000,12.280000,58.640000,13.540000,58.450000C14.800000,58.220000,16.100000,58.170000,17.370000,58.330000C18.630000,58.480000,19.900000,58.900000,20.800000,59.800000C21.350000,60.360000,21.690000,61.100000,21.850000,61.880000C21.570000,61.770000,21.260000,61.710000,20.940000,61.710000C19.540000,61.710000,18.410000,62.840000,18.410000,64.240000C18.410000,65.640000,19.540000,66.770000,20.940000,66.770000C22.340000,66.770000,23.470000,65.640000,23.470000,64.240000C23.470000,63.220000,22.860000,62.340000,21.990000,61.940000C21.900000,61.090000,21.590000,60.260000,21.020000,59.590000C20.110000,58.560000,18.760000,58.040000,17.450000,57.800000C16.130000,57.550000,14.770000,57.530000,13.440000,57.700000C12.100000,57.820000,10.790000,58.200000,9.520000,58.690000C8.250000,59.180000,7.100000,59.920000,6,60.720000C4.950000,61.580000,3.950000,62.530000,3.140000,63.640000C1.470000,65.820000,0.500000,68.500000,0.140000,71.220000C0.060000,71.900000,0.010000,72.590000,0,73.280000C0.040000,73.970000,0,74.660000,0.130000,75.350000C0.280000,76.730000,0.730000,78.170000,1.630000,79.390000C2.510000,80.620000,3.880000,81.500000,5.270000,81.900000C6.660000,82.320000,8.070000,82.420000,9.420000,82.450000L11.400000,82.460000C12.150000,82.440000,12.860000,82.350000,13.540000,82.210000C14.910000,81.940000,16.190000,81.490000,17.460000,81.030000C19.980000,80.060000,22.370000,78.850000,24.670000,77.520000C26.970000,76.180000,29.180000,74.690000,31.310000,73.100000C33.450000,71.530000,35.500000,69.850000,37.480000,68.080000C39.970000,65.810000,42.400000,63.500000,44.800000,61.170000C43.760000,64.240000,42.510000,70.030000,47.930000,70.030000C53.860000,70.030000,61.630000,60.960000,64.440000,57.410000C64.110000,59.230000,63.800000,61.050000,63.530000,62.880000L62.960000,67.270000C60.710000,70.360000,58.480000,73.470000,56.260000,76.570000C54.710000,78.690000,53.200000,80.850000,51.620000,82.930000C50.070000,85.060000,48.460000,87.010000,46.610000,88.830000C44.800000,90.670000,42.830000,92.350000,40.750000,93.870000C38.680000,95.400000,36.460000,96.720000,34.130000,97.760000C32.950000,98.230000,31.750000,98.680000,30.520000,98.900000C29.300000,99.120000,28.010000,99.260000,26.880000,98.910000C25.750000,98.590000,24.890000,97.640000,24.690000,96.390000C24.550000,95.780000,24.540000,95.130000,24.600000,94.480000C24.640000,93.830000,24.750000,93.180000,24.930000,92.540000C24.410000,93.750000,24.040000,95.070000,24.150000,96.460000C24.190000,97.150000,24.410000,97.860000,24.830000,98.470000C25.230000,99.110000,25.900000,99.510000,26.550000,99.830000C27.930000,100.380000,29.360000,100.320000,30.720000,100.190000C32.110000,100.060000,33.410000,99.630000,34.700000,99.210000C39.800000,97.280000,44.200000,94.010000,48.030000,90.250000C49.920000,88.350000,51.650000,86.220000,53.160000,84.050000C54.680000,81.870000,56.160000,79.690000,57.560000,77.450000C59.380000,74.580000,61.140000,71.670000,62.810000,68.710000C62.690000,69.900000,62.560000,71.090000,62.480000,72.300000C62.390000,73.900000,62.250000,75.470000,62.250000,77.110000C62.250000,77.930000,62.190000,78.700000,62.250000,79.580000L62.310000,80.860000L62.340000,81.500000L62.420000,82.250000C62.640000,84.220000,63.440000,86.520000,65.130000,88.120000C65.950000,88.910000,66.910000,89.520000,67.880000,89.880000C68.850000,90.240000,69.810000,90.430000,70.730000,90.510000C72.580000,90.650000,74.280000,90.370000,75.890000,89.930000C77.490000,89.490000,79.010000,88.850000,80.410000,88.020000C78.790000,88.010000,77.220000,87.900000,75.710000,87.720000ZM66.400000,48.140000C65.680000,51.100000,65.050000,54.080000,64.500000,57.070000C51.440000,70.510000,46.920000,62.940000,45.810000,60.180000C46.830000,59.180000,47.850000,58.170000,48.870000,57.160000C49.260000,56.780000,49.640000,56.390000,50.030000,56C50.550000,56.090000,51.070000,56.160000,51.580000,56.190000C53.780000,56.360000,56.100000,56.270000,58.340000,55.450000C60.570000,54.680000,62.660000,52.920000,63.590000,50.650000C64.530000,48.390000,64.500000,45.960000,63.960000,43.770000C63.830000,43.250000,63.660000,42.740000,63.460000,42.250000C65.080000,40.540000,66.690000,38.830000,68.300000,37.110000C67.700000,40.510000,67.050000,44.280000,66.400000,48.140000ZM52.690000,53.340000C55.770000,50.240000,58.820000,47.110000,61.840000,43.950000C61.860000,44.040000,61.880000,44.130000,61.900000,44.220000C62.240000,46.090000,62.090000,48.040000,61.300000,49.610000C60.550000,51.190000,59.140000,52.300000,57.430000,52.840000C55.960000,53.320000,54.330000,53.420000,52.690000,53.340000ZM63.180000,41.600000C62.560000,40.240000,61.680000,39,60.480000,38.010000C59.590000,37.280000,58.330000,36.760000,57.120000,36.880000C56.030000,36.950000,54.940000,37.140000,53.910000,37.540000C52.880000,37.950000,51.930000,38.590000,51.260000,39.450000C50.590000,40.310000,50.190000,41.360000,50.140000,42.400000C50.580000,40.320000,52.300000,38.820000,54.200000,38.380000C55.150000,38.130000,56.150000,38.060000,57.150000,38.110000C58.050000,38.120000,58.800000,38.580000,59.470000,39.190000C60.520000,40.200000,61.220000,41.590000,61.630000,43.040000L50.850000,53.170000C50.230000,53.070000,49.630000,52.950000,49.050000,52.790000C48.180000,52.510000,47.360000,52.140000,46.660000,51.650000C45.240000,50.680000,44.300000,49.200000,43.900000,47.440000C43.490000,45.690000,43.580000,43.740000,43.940000,41.840000C44.310000,39.940000,44.930000,38.040000,45.810000,36.320000C47.490000,32.910000,50.860000,30.590000,54.520000,28.860000C58.180000,27.100000,62.150000,25.850000,66.130000,24.730000C67.660000,24.300000,69.200000,23.910000,70.750000,23.530000C70.370000,25.580000,69.460000,30.520000,68.370000,36.720000L63.180000,41.600000Z" fill="rgb(41,35,92)" stroke="none" stroke-width="1"/><path id="exei3wm15ny7" d="M221.790000,18.450000C223.290000,18.660000,224.740000,18.950000,225.950000,19.480000C227.170000,19.980000,228.050000,20.710000,228.430000,21.480000C228.820000,22.230000,228.930000,23.110000,228.830000,24.240000L228.800000,24.660000L228.730000,25.190000L228.580000,26.250000C228.500000,26.940000,228.360000,27.720000,228.250000,28.450000L227.510000,32.960000C227,35.990000,226.520000,39.050000,226.060000,42.110000C225.400000,46.570000,224.840000,51.070000,224.400000,55.590000C222.120000,69.260000,219.270000,84.180000,219.230000,84.400000C220.950000,84.250000,222.660000,84.060000,224.370000,83.850000L226.570000,83.610000C226.570000,83.600000,226.580000,83.570000,226.580000,83.550000C228.280000,83.310000,229.980000,83.040000,231.670000,82.710000C233.740000,82.340000,235.780000,81.850000,237.830000,81.300000C239.870000,80.740000,241.900000,80.110000,243.870000,79.270000C245.850000,78.440000,247.800000,77.470000,249.590000,76.150000C251.380000,74.860000,253,73.070000,254.060000,71.100000C255.130000,69.140000,255.920000,67.060000,256.380000,64.880000C256.820000,62.700000,256.980000,60.390000,256.470000,58.060000C255.990000,55.750000,254.620000,53.400000,252.530000,52.060000C251.510000,51.370000,250.400000,50.890000,249.290000,50.550000C249.280000,50.550000,249.270000,50.550000,249.250000,50.540000L249.700000,50.120000C253.540000,46.560000,257.350000,42.920000,261.260000,39.500000C263.230000,37.800000,265.240000,36.150000,267.340000,34.630000C269.430000,33.090000,271.590000,31.660000,273.830000,30.370000C276.060000,29.070000,278.360000,27.890000,280.740000,26.960000C281.930000,26.520000,283.140000,26.090000,284.350000,25.850000C284.950000,25.720000,285.550000,25.650000,286.110000,25.620000L288.070000,25.600000C289.340000,25.600000,290.580000,25.680000,291.710000,26C292.840000,26.310000,293.800000,26.930000,294.470000,27.820000C295.150000,28.710000,295.550000,29.850000,295.710000,31.060000C295.850000,31.650000,295.830000,32.290000,295.880000,32.910000C295.890000,33.530000,295.860000,34.160000,295.820000,34.780000C295.570000,37.260000,294.750000,39.700000,293.310000,41.760000C292.610000,42.810000,291.730000,43.710000,290.790000,44.550000C289.800000,45.330000,288.750000,46.050000,287.590000,46.580000C286.440000,47.100000,285.220000,47.530000,283.960000,47.720000C282.700000,47.950000,281.400000,48,280.130000,47.840000C278.870000,47.690000,277.600000,47.270000,276.700000,46.370000C276.150000,45.810000,275.810000,45.070000,275.650000,44.290000C275.930000,44.400000,276.240000,44.460000,276.560000,44.460000C277.960000,44.460000,279.090000,43.330000,279.090000,41.930000C279.090000,40.530000,277.960000,39.400000,276.560000,39.400000C275.160000,39.400000,274.030000,40.530000,274.030000,41.930000C274.030000,42.950000,274.640000,43.830000,275.510000,44.230000C275.600000,45.080000,275.910000,45.910000,276.480000,46.580000C277.390000,47.610000,278.740000,48.130000,280.050000,48.370000C281.370000,48.620000,282.730000,48.640000,284.060000,48.470000C285.400000,48.350000,286.710000,47.970000,287.980000,47.480000C289.250000,46.990000,290.400000,46.250000,291.500000,45.450000C292.550000,44.590000,293.550000,43.640000,294.360000,42.530000C296.030000,40.350000,297,37.670000,297.360000,34.950000C297.420000,34.270000,297.470000,33.580000,297.490000,32.890000C297.450000,32.200000,297.490000,31.510000,297.360000,30.820000C297.210000,29.440000,296.760000,28,295.860000,26.780000C294.980000,25.550000,293.610000,24.670000,292.220000,24.270000C290.830000,23.850000,289.420000,23.750000,288.070000,23.720000L286.090000,23.710000C285.340000,23.730000,284.630000,23.820000,283.950000,23.960000C282.580000,24.230000,281.300000,24.680000,280.030000,25.140000C277.510000,26.110000,275.120000,27.320000,272.820000,28.650000C270.520000,29.990000,268.310000,31.480000,266.180000,33.070000C264.040000,34.640000,261.990000,36.320000,260.010000,38.090000C257.520000,40.360000,255.090000,42.670000,252.690000,45C253.730000,41.930000,254.980000,36.140000,249.560000,36.140000C243.630000,36.140000,235.860000,45.210000,233.050000,48.760000C233.380000,46.940000,233.690000,45.120000,233.960000,43.290000L234.530000,38.900000C236.780000,35.810000,239.010000,32.700000,241.230000,29.600000C242.780000,27.480000,244.290000,25.320000,245.870000,23.240000C247.420000,21.110000,249.030000,19.160000,250.880000,17.340000C252.690000,15.500000,254.660000,13.820000,256.740000,12.300000C258.810000,10.770000,261.030000,9.450000,263.360000,8.410000C264.540000,7.940000,265.740000,7.490000,266.970000,7.270000C268.190000,7.050000,269.480000,6.910000,270.610000,7.260000C271.740000,7.580000,272.600000,8.530000,272.800000,9.780000C272.940000,10.390000,272.950000,11.040000,272.890000,11.690000C272.850000,12.340000,272.740000,12.990000,272.560000,13.630000C273.080000,12.420000,273.450000,11.100000,273.340000,9.710000C273.300000,9.020000,273.080000,8.310000,272.660000,7.700000C272.260000,7.060000,271.590000,6.660000,270.940000,6.340000C269.560000,5.790000,268.130000,5.850000,266.770000,5.980000C265.380000,6.110000,264.080000,6.540000,262.790000,6.960000C257.690000,8.890000,253.290000,12.160000,249.460000,15.920000C247.570000,17.820000,245.840000,19.950000,244.330000,22.120000C242.810000,24.300000,241.330000,26.480000,239.930000,28.720000C238.110000,31.590000,236.350000,34.500000,234.680000,37.460000C234.800000,36.270000,234.930000,35.080000,235.010000,33.870000C235.100000,32.270000,235.240000,30.700000,235.240000,29.060000C235.240000,28.240000,235.300000,27.470000,235.240000,26.590000L235.180000,25.310000L235.150000,24.670000L235.070000,23.920000C234.850000,21.950000,234.050000,19.650000,232.360000,18.050000C231.540000,17.260000,230.580000,16.650000,229.610000,16.290000C228.640000,15.930000,227.680000,15.740000,226.760000,15.660000C224.910000,15.520000,223.210000,15.800000,221.600000,16.240000C220,16.680000,218.480000,17.320000,217.080000,18.150000C218.710000,18.160000,220.290000,18.260000,221.790000,18.450000ZM231.100000,58.030000C231.820000,55.070000,232.450000,52.090000,233,49.100000C246.060000,35.660000,250.580000,43.230000,251.690000,45.990000C250.670000,46.990000,249.650000,48,248.630000,49.010000C248.240000,49.390000,247.860000,49.780000,247.470000,50.170000C246.950000,50.080000,246.430000,50.010000,245.920000,49.980000C243.720000,49.810000,241.400000,49.900000,239.160000,50.720000C236.930000,51.490000,234.840000,53.250000,233.910000,55.520000C232.970000,57.780000,233,60.210000,233.540000,62.400000C233.670000,62.920000,233.840000,63.430000,234.040000,63.920000C232.420000,65.630000,230.810000,67.340000,229.200000,69.060000C229.810000,65.650000,230.460000,61.890000,231.100000,58.030000ZM244.810000,52.820000C241.730000,55.920000,238.680000,59.050000,235.660000,62.210000C235.640000,62.120000,235.620000,62.030000,235.600000,61.940000C235.260000,60.070000,235.410000,58.120000,236.200000,56.550000C236.950000,54.970000,238.360000,53.860000,240.070000,53.320000C241.540000,52.850000,243.170000,52.750000,244.810000,52.820000ZM234.330000,64.570000C234.950000,65.930000,235.830000,67.170000,237.030000,68.160000C237.920000,68.890000,239.180000,69.410000,240.390000,69.290000C241.480000,69.220000,242.570000,69.030000,243.600000,68.630000C244.630000,68.220000,245.580000,67.580000,246.250000,66.720000C246.920000,65.860000,247.320000,64.810000,247.370000,63.770000C246.930000,65.850000,245.210000,67.350000,243.310000,67.790000C242.360000,68.040000,241.360000,68.110000,240.360000,68.060000C239.460000,68.050000,238.710000,67.590000,238.040000,66.980000C236.990000,65.970000,236.290000,64.580000,235.880000,63.130000L246.650000,53C247.270000,53.100000,247.870000,53.220000,248.450000,53.380000C249.320000,53.660000,250.140000,54.030000,250.840000,54.520000C252.260000,55.490000,253.200000,56.970000,253.600000,58.730000C254.010000,60.480000,253.920000,62.430000,253.560000,64.330000C253.190000,66.230000,252.570000,68.130000,251.690000,69.850000C250.010000,73.260000,246.640000,75.580000,242.980000,77.310000C239.320000,79.070000,235.350000,80.320000,231.370000,81.440000C229.840000,81.870000,228.300000,82.260000,226.750000,82.640000C227.130000,80.590000,228.040000,75.650000,229.130000,69.450000L234.330000,64.570000Z" fill="rgb(41,35,92)" stroke="none" stroke-width="1"/></g></g></svg>