<?xml version="1.0" encoding="utf-8"?>
<!-- Generator: Adobe Illustrator 23.0.2, SVG Export Plug-In . SVG Version: 6.00 Build 0)  -->
<svg version="1.1" id="Layer_1" xmlns="http://www.w3.org/2000/svg" xmlns:xlink="http://www.w3.org/1999/xlink" x="0px" y="0px"
	 viewBox="0 0 297.5 105.97" style="enable-background:new 0 0 297.5 105.97;" xml:space="preserve">
<style type="text/css">
	.st0{fill:#29235C;}
</style>
<g>
	<path class="st0" d="M129.1,40.92c-12.39,4.11-16.25,13.11-18.26,21.37c-1.85,0.99-3.81,1.74-5.81,1.99
		c-1.21,0.13-2.61,0.03-3.94,0.07c-1.35,0-2.69,0.05-4.04,0.09c-1.17,0.05-2.33,0.11-3.5,0.19c1.66-7.71,5.69-23.66,8.3-39.72
		C104.51,8.5,112.26,0,112.26,0c-9.92,4.75-14.92,9.92-19.42,21.75s-9.83,43.58-11.08,51.08s2.58,8.58,9.93,10.99
		s16.66-3.4,16.66-3.4v2.67c8.68,2.95,16.58-3.92,16.58-3.92h-5.92c0,0,0.17-1.08,1.17-16.33S129.1,40.92,129.1,40.92z M93.93,81.17
		c-3.61,0-2.13-8.23-0.57-15.65c1.23,0.09,2.46,0.15,3.69,0.2c1.35,0.04,2.69,0.09,4.04,0.09c1.36,0,2.65,0.07,4.12-0.1
		c1.9-0.27,3.65-0.96,5.26-1.85c-0.46,2.06-0.82,4.06-1.21,5.88C107.26,79.25,97.6,81.17,93.93,81.17z"/>
	<path class="st0" d="M169.53,65.05c12.39-4.11,16.25-13.11,18.26-21.37c1.85-0.99,3.81-1.74,5.81-1.99
		c1.21-0.13,2.61-0.03,3.94-0.07c1.35,0,2.69-0.05,4.04-0.09c1.17-0.05,2.33-0.11,3.5-0.19c-1.66,7.71-5.69,23.66-8.3,39.72
		c-2.67,16.42-10.42,24.92-10.42,24.92c9.92-4.75,14.92-9.92,19.42-21.75s9.83-43.58,11.08-51.08s-2.58-8.58-9.93-10.99
		s-16.66,3.4-16.66,3.4v-2.67c-8.68-2.95-16.58,3.92-16.58,3.92h5.92c0,0-0.17,1.08-1.17,16.33S169.53,65.05,169.53,65.05z
		 M204.7,24.8c3.61,0,2.13,8.23,0.57,15.65c-1.23-0.09-2.46-0.15-3.69-0.2c-1.35-0.04-2.69-0.09-4.04-0.09
		c-1.36,0-2.65-0.07-4.12,0.1c-1.9,0.27-3.65,0.96-5.26,1.85c0.46-2.06,0.82-4.06,1.21-5.88C191.36,26.72,201.03,24.8,204.7,24.8z"
		/>
	<path class="st0" d="M170.11,28.77c-0.42-1.44-1.01-2.82-1.74-4.11c-0.73-1.25-1.58-2.5-2.66-3.6c-1.08-1.1-2.39-2.06-3.85-2.68
		c-1.46-0.62-3.02-0.9-4.51-0.93c-3.01-0.06-5.75,0.79-8.3,1.8c-2.54,1.08-4.92,2.39-7.15,3.95c2.6-0.76,5.16-1.56,7.73-2.08
		c2.55-0.55,5.15-0.85,7.5-0.54c2.37,0.29,4.34,1.33,5.82,3.06c0.75,0.86,1.4,1.85,1.98,2.94c0.56,1.06,1.03,2.15,1.34,3.29
		c1.34,4.55,0.43,9.62-1.86,14.1c-1.08,2.21-2.64,4.08-4.8,5.39c-1.66,1.05-3.61,1.74-5.66,2.1c1.66-8.3,3.2-15.79,3.69-17.71
		c1.25-4.83,3.67-10.92-3.5-10.92S145.97,27,145.97,27c5.75-2.75,0.42,15.67-1.58,23.25c-0.24,0.91-0.6,2.08-1.02,3.42
		c-1.96-0.1-3.97,0.21-5.88,0.94c-1.34,0.52-2.61,1.29-3.74,2.24c-1.15,0.92-2.1,2.14-2.89,3.32c-1.56,2.37-2.75,5.06-3.33,7.94
		c-0.59,2.88-0.52,5.95,0.31,8.83c0.42,1.44,1.01,2.82,1.74,4.11c0.73,1.25,1.58,2.5,2.66,3.6c1.08,1.1,2.39,2.06,3.85,2.68
		c1.46,0.62,3.02,0.9,4.51,0.93c3.01,0.06,5.75-0.79,8.3-1.8c2.54-1.08,4.92-2.39,7.15-3.95c-2.6,0.76-5.16,1.56-7.73,2.08
		c-2.55,0.55-5.15,0.85-7.5,0.54c-2.37-0.29-4.34-1.33-5.82-3.06c-0.75-0.86-1.4-1.85-1.98-2.94c-0.56-1.06-1.03-2.15-1.34-3.29
		c-1.34-4.55-0.43-9.62,1.86-14.1c1.08-2.21,2.64-4.08,4.8-5.39c1.43-0.9,3.06-1.52,4.79-1.91c-3.16,10.06-9.24,28.65-0.58,28.65
		c10.67,0,13.5-6.07,13.5-6.07c-4.08,1.83-7.42,1.33-7.42,1.33s2.73-13.98,5.2-26.36c2.18,0.24,4.47-0.06,6.62-0.87
		c1.34-0.52,2.61-1.29,3.74-2.24c1.15-0.92,2.1-2.14,2.89-3.32c1.56-2.37,2.75-5.06,3.33-7.94
		C171.01,34.73,170.94,31.65,170.11,28.77z"/>
	<path class="st0" d="M75.71,87.72c-1.5-0.21-2.95-0.5-4.16-1.03c-1.22-0.5-2.1-1.23-2.48-2c-0.39-0.75-0.5-1.63-0.4-2.76l0.03-0.42
		l0.07-0.53l0.15-1.06c0.08-0.69,0.22-1.47,0.33-2.2l0.74-4.51c0.51-3.03,0.99-6.09,1.45-9.15c0.66-4.46,1.22-8.96,1.66-13.48
		c2.28-13.67,5.13-28.59,5.17-28.81c-1.72,0.15-3.43,0.34-5.14,0.55l-2.2,0.24c0,0.01-0.01,0.04-0.01,0.06
		c-1.7,0.24-3.4,0.51-5.09,0.84c-2.07,0.37-4.11,0.86-6.16,1.41c-2.04,0.56-4.07,1.19-6.04,2.03c-1.98,0.83-3.93,1.8-5.72,3.12
		c-1.79,1.29-3.41,3.08-4.47,5.05c-1.07,1.96-1.86,4.04-2.32,6.22c-0.44,2.18-0.6,4.49-0.09,6.82c0.48,2.31,1.85,4.66,3.94,6
		c1.02,0.69,2.13,1.17,3.24,1.51c0.01,0,0.02,0,0.04,0.01l-0.45,0.42c-3.84,3.56-7.65,7.2-11.56,10.62
		c-1.97,1.7-3.98,3.35-6.08,4.87c-2.09,1.54-4.25,2.97-6.49,4.26c-2.23,1.3-4.53,2.48-6.91,3.41c-1.19,0.44-2.4,0.87-3.61,1.11
		c-0.6,0.13-1.2,0.2-1.76,0.23l-1.96,0.02c-1.27,0-2.51-0.08-3.64-0.4c-1.13-0.31-2.09-0.93-2.76-1.82
		c-0.68-0.89-1.08-2.03-1.24-3.24c-0.14-0.59-0.12-1.23-0.17-1.85c-0.01-0.62,0.02-1.25,0.06-1.87c0.25-2.48,1.07-4.92,2.51-6.98
		c0.7-1.05,1.58-1.95,2.52-2.79c0.99-0.78,2.04-1.5,3.2-2.03c1.15-0.52,2.37-0.95,3.63-1.14c1.26-0.23,2.56-0.28,3.83-0.12
		c1.26,0.15,2.53,0.57,3.43,1.47c0.55,0.56,0.89,1.3,1.05,2.08c-0.28-0.11-0.59-0.17-0.91-0.17c-1.4,0-2.53,1.13-2.53,2.53
		s1.13,2.53,2.53,2.53s2.53-1.13,2.53-2.53c0-1.02-0.61-1.9-1.48-2.3c-0.09-0.85-0.4-1.68-0.97-2.35c-0.91-1.03-2.26-1.55-3.57-1.79
		c-1.32-0.25-2.68-0.27-4.01-0.1c-1.34,0.12-2.65,0.5-3.92,0.99c-1.27,0.49-2.42,1.23-3.52,2.03c-1.05,0.86-2.05,1.81-2.86,2.92
		c-1.67,2.18-2.64,4.86-3,7.58C0.06,71.9,0.01,72.59,0,73.28c0.04,0.69,0,1.38,0.13,2.07c0.15,1.38,0.6,2.82,1.5,4.04
		c0.88,1.23,2.25,2.11,3.64,2.51c1.39,0.42,2.8,0.52,4.15,0.55l1.98,0.01c0.75-0.02,1.46-0.11,2.14-0.25
		c1.37-0.27,2.65-0.72,3.92-1.18c2.52-0.97,4.91-2.18,7.21-3.51c2.3-1.34,4.51-2.83,6.64-4.42c2.14-1.57,4.19-3.25,6.17-5.02
		c2.49-2.27,4.92-4.58,7.32-6.91c-1.04,3.07-2.29,8.86,3.13,8.86c5.93,0,13.7-9.07,16.51-12.62c-0.33,1.82-0.64,3.64-0.91,5.47
		l-0.57,4.39c-2.25,3.09-4.48,6.2-6.7,9.3c-1.55,2.12-3.06,4.28-4.64,6.36c-1.55,2.13-3.16,4.08-5.01,5.9
		c-1.81,1.84-3.78,3.52-5.86,5.04c-2.07,1.53-4.29,2.85-6.62,3.89c-1.18,0.47-2.38,0.92-3.61,1.14c-1.22,0.22-2.51,0.36-3.64,0.01
		c-1.13-0.32-1.99-1.27-2.19-2.52c-0.14-0.61-0.15-1.26-0.09-1.91c0.04-0.65,0.15-1.3,0.33-1.94c-0.52,1.21-0.89,2.53-0.78,3.92
		c0.04,0.69,0.26,1.4,0.68,2.01c0.4,0.64,1.07,1.04,1.72,1.36c1.38,0.55,2.81,0.49,4.17,0.36c1.39-0.13,2.69-0.56,3.98-0.98
		c5.1-1.93,9.5-5.2,13.33-8.96c1.89-1.9,3.62-4.03,5.13-6.2c1.52-2.18,3-4.36,4.4-6.6c1.82-2.87,3.58-5.78,5.25-8.74
		c-0.12,1.19-0.25,2.38-0.33,3.59c-0.09,1.6-0.23,3.17-0.23,4.81c0,0.82-0.06,1.59,0,2.47l0.06,1.28l0.03,0.64l0.08,0.75
		c0.22,1.97,1.02,4.27,2.71,5.87c0.82,0.79,1.78,1.4,2.75,1.76c0.97,0.36,1.93,0.55,2.85,0.63c1.85,0.14,3.55-0.14,5.16-0.58
		c1.6-0.44,3.12-1.08,4.52-1.91C78.79,88.01,77.22,87.9,75.71,87.72z M66.4,48.14c-0.72,2.96-1.35,5.94-1.9,8.93
		c-13.06,13.44-17.58,5.87-18.69,3.11c1.02-1,2.04-2.01,3.06-3.02c0.39-0.38,0.77-0.77,1.16-1.16c0.52,0.09,1.04,0.16,1.55,0.19
		c2.2,0.17,4.52,0.08,6.76-0.74c2.23-0.77,4.32-2.53,5.25-4.8c0.94-2.26,0.91-4.69,0.37-6.88c-0.13-0.52-0.3-1.03-0.5-1.52
		c1.62-1.71,3.23-3.42,4.84-5.14C67.7,40.51,67.05,44.28,66.4,48.14z M52.69,53.34c3.08-3.1,6.13-6.23,9.15-9.39
		c0.02,0.09,0.04,0.18,0.06,0.27c0.34,1.87,0.19,3.82-0.6,5.39c-0.75,1.58-2.16,2.69-3.87,3.23C55.96,53.32,54.33,53.42,52.69,53.34
		z M63.18,41.6c-0.62-1.36-1.5-2.6-2.7-3.59c-0.89-0.73-2.15-1.25-3.36-1.13c-1.09,0.07-2.18,0.26-3.21,0.66
		c-1.03,0.41-1.98,1.05-2.65,1.91c-0.67,0.86-1.07,1.91-1.12,2.95c0.44-2.08,2.16-3.58,4.06-4.02c0.95-0.25,1.95-0.32,2.95-0.27
		c0.9,0.01,1.65,0.47,2.32,1.08c1.05,1.01,1.75,2.4,2.16,3.85L50.85,53.17c-0.62-0.1-1.22-0.22-1.8-0.38
		c-0.87-0.28-1.69-0.65-2.39-1.14c-1.42-0.97-2.36-2.45-2.76-4.21c-0.41-1.75-0.32-3.7,0.04-5.6c0.37-1.9,0.99-3.8,1.87-5.52
		c1.68-3.41,5.05-5.73,8.71-7.46c3.66-1.76,7.63-3.01,11.61-4.13c1.53-0.43,3.07-0.82,4.62-1.2c-0.38,2.05-1.29,6.99-2.38,13.19
		L63.18,41.6z"/>
	<path class="st0" d="M221.79,18.45c1.5,0.21,2.95,0.5,4.16,1.03c1.22,0.5,2.1,1.23,2.48,2c0.39,0.75,0.5,1.63,0.4,2.76l-0.03,0.42
		l-0.07,0.53l-0.15,1.06c-0.08,0.69-0.22,1.47-0.33,2.2l-0.74,4.51c-0.51,3.03-0.99,6.09-1.45,9.15c-0.66,4.46-1.22,8.96-1.66,13.48
		c-2.28,13.67-5.13,28.59-5.17,28.81c1.72-0.15,3.43-0.34,5.14-0.55l2.2-0.24c0-0.01,0.01-0.04,0.01-0.06
		c1.7-0.24,3.4-0.51,5.09-0.84c2.07-0.37,4.11-0.86,6.16-1.41c2.04-0.56,4.07-1.19,6.04-2.03c1.98-0.83,3.93-1.8,5.72-3.12
		c1.79-1.29,3.41-3.08,4.47-5.05c1.07-1.96,1.86-4.04,2.32-6.22c0.44-2.18,0.6-4.49,0.09-6.82c-0.48-2.31-1.85-4.66-3.94-6
		c-1.02-0.69-2.13-1.17-3.24-1.51c-0.01,0-0.02,0-0.04-0.01l0.45-0.42c3.84-3.56,7.65-7.2,11.56-10.62c1.97-1.7,3.98-3.35,6.08-4.87
		c2.09-1.54,4.25-2.97,6.49-4.26c2.23-1.3,4.53-2.48,6.91-3.41c1.19-0.44,2.4-0.87,3.61-1.11c0.6-0.13,1.2-0.2,1.76-0.23l1.96-0.02
		c1.27,0,2.51,0.08,3.64,0.4c1.13,0.31,2.09,0.93,2.76,1.82c0.68,0.89,1.08,2.03,1.24,3.24c0.14,0.59,0.12,1.23,0.17,1.85
		c0.01,0.62-0.02,1.25-0.06,1.87c-0.25,2.48-1.07,4.92-2.51,6.98c-0.7,1.05-1.58,1.95-2.52,2.79c-0.99,0.78-2.04,1.5-3.2,2.03
		c-1.15,0.52-2.37,0.95-3.63,1.14c-1.26,0.23-2.56,0.28-3.83,0.12c-1.26-0.15-2.53-0.57-3.43-1.47c-0.55-0.56-0.89-1.3-1.05-2.08
		c0.28,0.11,0.59,0.17,0.91,0.17c1.4,0,2.53-1.13,2.53-2.53s-1.13-2.53-2.53-2.53s-2.53,1.13-2.53,2.53c0,1.02,0.61,1.9,1.48,2.3
		c0.09,0.85,0.4,1.68,0.97,2.35c0.91,1.03,2.26,1.55,3.57,1.79c1.32,0.25,2.68,0.27,4.01,0.1c1.34-0.12,2.65-0.5,3.92-0.99
		c1.27-0.49,2.42-1.23,3.52-2.03c1.05-0.86,2.05-1.81,2.86-2.92c1.67-2.18,2.64-4.86,3-7.58c0.06-0.68,0.11-1.37,0.13-2.06
		c-0.04-0.69,0-1.38-0.13-2.07c-0.15-1.38-0.6-2.82-1.5-4.04c-0.88-1.23-2.25-2.11-3.64-2.51c-1.39-0.42-2.8-0.52-4.15-0.55
		l-1.98-0.01c-0.75,0.02-1.46,0.11-2.14,0.25c-1.37,0.27-2.65,0.72-3.92,1.18c-2.52,0.97-4.91,2.18-7.21,3.51
		c-2.3,1.34-4.51,2.83-6.64,4.42c-2.14,1.57-4.19,3.25-6.17,5.02c-2.49,2.27-4.92,4.58-7.32,6.91c1.04-3.07,2.29-8.86-3.13-8.86
		c-5.93,0-13.7,9.07-16.51,12.62c0.33-1.82,0.64-3.64,0.91-5.47l0.57-4.39c2.25-3.09,4.48-6.2,6.7-9.3
		c1.55-2.12,3.06-4.28,4.64-6.36c1.55-2.13,3.16-4.08,5.01-5.9c1.81-1.84,3.78-3.52,5.86-5.04c2.07-1.53,4.29-2.85,6.62-3.89
		c1.18-0.47,2.38-0.92,3.61-1.14c1.22-0.22,2.51-0.36,3.64-0.01c1.13,0.32,1.99,1.27,2.19,2.52c0.14,0.61,0.15,1.26,0.09,1.91
		c-0.04,0.65-0.15,1.3-0.33,1.94c0.52-1.21,0.89-2.53,0.78-3.92c-0.04-0.69-0.26-1.4-0.68-2.01c-0.4-0.64-1.07-1.04-1.72-1.36
		c-1.38-0.55-2.81-0.49-4.17-0.36c-1.39,0.13-2.69,0.56-3.98,0.98c-5.1,1.93-9.5,5.2-13.33,8.96c-1.89,1.9-3.62,4.03-5.13,6.2
		c-1.52,2.18-3,4.36-4.4,6.6c-1.82,2.87-3.58,5.78-5.25,8.74c0.12-1.19,0.25-2.38,0.33-3.59c0.09-1.6,0.23-3.17,0.23-4.81
		c0-0.82,0.06-1.59,0-2.47l-0.06-1.28l-0.03-0.64l-0.08-0.75c-0.22-1.97-1.02-4.27-2.71-5.87c-0.82-0.79-1.78-1.4-2.75-1.76
		c-0.97-0.36-1.93-0.55-2.85-0.63c-1.85-0.14-3.55,0.14-5.16,0.58c-1.6,0.44-3.12,1.08-4.52,1.91
		C218.71,18.16,220.29,18.26,221.79,18.45z M231.1,58.03c0.72-2.96,1.35-5.94,1.9-8.93c13.06-13.44,17.58-5.87,18.69-3.11
		c-1.02,1-2.04,2.01-3.06,3.02c-0.39,0.38-0.77,0.77-1.16,1.16c-0.52-0.09-1.04-0.16-1.55-0.19c-2.2-0.17-4.52-0.08-6.76,0.74
		c-2.23,0.77-4.32,2.53-5.25,4.8c-0.94,2.26-0.91,4.69-0.37,6.88c0.13,0.52,0.3,1.03,0.5,1.52c-1.62,1.71-3.23,3.42-4.84,5.14
		C229.81,65.65,230.46,61.89,231.1,58.03z M244.81,52.82c-3.08,3.1-6.13,6.23-9.15,9.39c-0.02-0.09-0.04-0.18-0.06-0.27
		c-0.34-1.87-0.19-3.82,0.6-5.39c0.75-1.58,2.16-2.69,3.87-3.23C241.54,52.85,243.17,52.75,244.81,52.82z M234.33,64.57
		c0.62,1.36,1.5,2.6,2.7,3.59c0.89,0.73,2.15,1.25,3.36,1.13c1.09-0.07,2.18-0.26,3.21-0.66c1.03-0.41,1.98-1.05,2.65-1.91
		c0.67-0.86,1.07-1.91,1.12-2.95c-0.44,2.08-2.16,3.58-4.06,4.02c-0.95,0.25-1.95,0.32-2.95,0.27c-0.9-0.01-1.65-0.47-2.32-1.08
		c-1.05-1.01-1.75-2.4-2.16-3.85L246.65,53c0.62,0.1,1.22,0.22,1.8,0.38c0.87,0.28,1.69,0.65,2.39,1.14
		c1.42,0.97,2.36,2.45,2.76,4.21c0.41,1.75,0.32,3.7-0.04,5.6c-0.37,1.9-0.99,3.8-1.87,5.52c-1.68,3.41-5.05,5.73-8.71,7.46
		c-3.66,1.76-7.63,3.01-11.61,4.13c-1.53,0.43-3.07,0.82-4.62,1.2c0.38-2.05,1.29-6.99,2.38-13.19L234.33,64.57z"/>
</g>
</svg>
